<svg width="11" height="17" viewBox="0 0 11 17" fill="none" xmlns="http://www.w3.org/2000/svg">
<path fill-rule="evenodd" clip-rule="evenodd" d="M8.99555 16.4353C8.81829 16.4351 8.6428 16.4 8.47917 16.3318C8.31553 16.2637 8.16698 16.1638 8.04204 16.0381L1.30038 9.27977C1.17513 9.15426 1.07583 9.00529 1.00816 8.84139C0.940492 8.67749 0.905775 8.50186 0.905994 8.32454C0.906213 8.14722 0.941363 7.97167 1.00944 7.80794C1.07751 7.64421 1.17717 7.49549 1.30273 7.37028L8.06106 0.628612C8.1856 0.499041 8.33476 0.395641 8.49978 0.324475C8.66481 0.253309 8.84239 0.21581 9.0221 0.214177C9.20181 0.212544 9.38004 0.246811 9.54633 0.314966C9.71262 0.383122 9.86364 0.483795 9.99051 0.611082C10.1174 0.738368 10.2176 0.889706 10.2852 1.05622C10.3528 1.22274 10.3865 1.40107 10.3843 1.58078C10.382 1.76048 10.344 1.93794 10.2723 2.10273C10.2006 2.26753 10.0967 2.41635 9.9667 2.54047L4.16505 8.32931L9.9524 14.131C10.1412 14.3199 10.2698 14.5606 10.3217 14.8227C10.3737 15.0847 10.3468 15.3563 10.2443 15.603C10.1419 15.8497 9.96853 16.0605 9.74624 16.2086C9.52394 16.3568 9.26269 16.4357 8.99555 16.4353Z" fill="#C8C8C8"/>
</svg>
