<svg width="25" height="26" viewBox="0 0 25 26" fill="none" xmlns="http://www.w3.org/2000/svg">
<path fill-rule="evenodd" clip-rule="evenodd" d="M18.1881 11.2064L12.5812 16.7995C12.381 16.9992 12.1809 17.099 11.8809 17.0986C11.5809 17.0982 11.381 16.998 11.1812 16.7977L7.78542 13.3935C7.38592 12.993 7.38666 12.393 7.78715 11.9935C8.18764 11.594 8.78764 11.5948 9.18715 11.9953L11.8838 14.6986L16.7899 9.80464C17.1904 9.40513 17.7904 9.40588 18.1899 9.80637C18.5894 10.2069 18.5886 10.8069 18.1881 11.2064Z" fill="#EC4261"/>
<path d="M12.9956 3.9999C17.9956 4.00607 21.9906 8.01101 21.9845 13.011C21.9783 18.011 17.9734 22.0061 12.9734 21.9999C7.97336 21.9937 3.9783 17.9888 3.98447 12.9888C3.99064 7.98879 7.99557 3.99373 12.9956 3.9999ZM12.998 1.9999C6.89804 1.99238 1.992 6.88632 1.98447 12.9863C1.97694 19.0863 6.87089 23.9924 12.9709 23.9999C19.0709 24.0074 23.9769 19.1135 23.9845 13.0135C23.992 6.91347 19.098 2.00743 12.998 1.9999Z" fill="#EC4261"/>
</svg>
